<?xml version="1.0" standalone="no"?>
<!DOCTYPE svg PUBLIC "-//W3C//DTD SVG 20010904//EN"
 "http://www.w3.org/TR/2001/REC-SVG-20010904/DTD/svg10.dtd">
<svg version="1.0" xmlns="http://www.w3.org/2000/svg"
 width="104.000000pt" height="104.000000pt" viewBox="0 0 104.000000 104.000000"
 preserveAspectRatio="xMidYMid meet">
<metadata>
Created by potrace 1.14, written by Peter Selinger 2001-2017
</metadata>
<g transform="translate(0.000000,104.000000) scale(0.100000,-0.100000)"
fill="#000000" stroke="none">
<path d="M368 1007 c-350 -127 -452 -583 -191 -852 101 -104 224 -151 377
-143 82 4 105 10 168 40 186 89 292 260 292 468 0 209 -106 379 -293 468 -68
33 -83 36 -180 39 -93 3 -114 1 -173 -20z m243 3 c172 -32 328 -181 374 -355
17 -68 19 -189 4 -255 -55 -241 -302 -413 -535 -373 -175 30 -327 160 -382
328 -61 184 -21 370 110 511 114 121 269 174 429 144z"/>
<path d="M479 903 c-38 -46 -173 -71 -240 -45 -23 9 -30 7 -48 -11 -19 -22
-20 -25 -6 -71 19 -64 18 -109 -4 -173 l-18 -53 174 0 173 0 0 185 c0 102 -4
185 -9 185 -5 0 -15 -7 -22 -17z m-179 -156 c0 -6 -14 3 -30 21 -17 18 -30 38
-30 45 0 6 14 -3 30 -21 17 -18 30 -38 30 -45z m28 -11 c-1 -13 4 -31 11 -40
13 -16 12 -17 -15 -10 -29 7 -68 34 -60 41 2 3 14 -1 26 -7 17 -9 21 -9 19 2
-1 7 -1 27 0 43 1 26 3 27 12 12 6 -10 9 -28 7 -41z m46 -28 c3 -13 7 -32 8
-42 2 -11 8 -21 15 -23 7 -3 9 4 5 19 -5 20 -3 21 10 10 17 -14 30 -62 17 -62
-4 0 -11 5 -14 10 -3 6 -21 10 -40 10 -18 0 -40 3 -49 6 -25 10 -7 25 21 18
20 -5 24 -4 18 6 -12 19 -14 70 -4 70 5 0 11 -10 13 -22z"/>
<path d="M540 735 l0 -185 170 0 c94 0 170 4 170 9 0 5 -7 25 -15 44 -18 44
-19 141 -1 182 11 26 11 33 -6 58 -11 15 -23 25 -28 22 -5 -3 -29 -9 -54 -14
-62 -11 -131 3 -188 39 l-48 29 0 -184z m130 55 c-9 -17 -7 -26 12 -50 29 -36
37 -37 44 -2 4 15 19 37 35 50 l29 24 0 -27 c0 -30 -14 -61 -41 -91 -19 -20
-19 -21 11 -49 17 -16 30 -34 30 -39 -1 -6 -16 7 -35 28 -35 39 -35 39 -57 20
-13 -10 -25 -22 -28 -25 -3 -3 -16 -12 -30 -19 -24 -13 -24 -12 -10 5 8 11 29
31 45 46 l30 27 -21 28 c-11 15 -26 30 -32 32 -15 5 -16 -30 -1 -45 6 -6 9
-17 7 -23 -2 -7 -17 0 -37 19 -18 17 -31 35 -29 40 3 9 78 70 86 71 1 0 -2 -9
-8 -20z"/>
<path d="M130 496 c-41 -109 6 -243 103 -289 18 -9 66 -23 107 -31 41 -9 96
-27 123 -39 l47 -24 0 204 0 203 -185 0 -185 0 -10 -24z m162 -49 c-9 -10 -5
-21 17 -48 l29 -34 13 30 c14 33 48 75 61 75 13 0 9 -38 -6 -68 -13 -26 -110
-122 -123 -122 -4 0 -15 -7 -25 -17 -10 -9 -18 -12 -18 -7 1 14 26 44 37 44 5
0 20 11 32 24 l23 24 -28 36 -29 36 -3 -25 c-2 -15 2 -33 9 -41 26 -32 -2 -24
-38 11 -25 24 -34 38 -25 42 7 3 27 18 44 34 31 28 52 32 30 6z m102 -152 c15
-19 23 -35 18 -35 -5 0 -22 16 -36 35 -15 19 -23 35 -18 35 5 0 22 -16 36 -35z"/>
<path d="M540 316 l0 -205 44 25 c24 14 79 31 122 40 47 8 97 26 124 42 82 50
123 174 89 271 l-11 31 -184 0 -184 0 0 -204z m120 101 c0 -7 -12 1 -25 16
-14 15 -25 33 -25 40 0 7 12 -1 25 -16 14 -15 25 -33 25 -40z m30 -12 c0 -17
5 -36 12 -43 18 -18 -6 -16 -48 4 -39 19 -46 38 -9 24 19 -7 25 -7 24 3 -1 6
-1 26 0 42 1 23 3 27 11 15 5 -8 10 -29 10 -45z m55 -55 c4 -22 12 -43 17 -46
7 -5 9 3 4 22 l-6 29 20 -24 c11 -13 20 -32 20 -42 0 -18 -2 -18 -24 -4 -13 8
-30 13 -39 9 -8 -3 -28 1 -44 10 l-28 15 35 1 c23 0 31 3 24 10 -12 12 -6 72
6 65 5 -3 11 -23 15 -45z"/>
</g>
</svg>
